# xmcd
#
# Track frame offsets:
#	150
#	18330
#	36255
#	54285
#	70535
#	88705
#	104957
#	119875
#	140997
#
# Disc length: 2155 seconds
#
# Revision: 2
# Processed by: cddbd v1.5.1PL0 Copyright (c) Steve Scherf et al.
# Submitted via: EasyCDDAExtractor 8.0.1.2
#
DISCID=86086909
DTITLE=BED and BREAKFAST - The Singles Collection
DYEAR=1998
DGENRE=Pop
TTITLE0=All I Wanna Do (Radio Version)
TTITLE1=If You Were Mine (Radio Mix)
TTITLE2=Stay Together (Radio Edit)
TTITLE3=I Will Follow You (Air Play Mix)
TTITLE4=Falling In Love (Takapi's Radio Edit)
TTITLE5=You Make Me Believe In Magic (Radio Edit)
TTITLE6=If I Could Change The World (Radio Edit)
TTITLE7=All I Wanna Do (Live At Nemo Mix)
TTITLE8=If You Were Mine (Unplugged Mix)
EXTD=
EXTT0=
EXTT1=
EXTT2=
EXTT3=
EXTT4=
EXTT5=
EXTT6=
EXTT7=
EXTT8=
PLAYORDER=
